<?xml version="1.0" standalone="no"?>
<!DOCTYPE svg PUBLIC "-//W3C//DTD SVG 20010904//EN"
 "http://www.w3.org/TR/2001/REC-SVG-20010904/DTD/svg10.dtd">
<svg version="1.0" xmlns="http://www.w3.org/2000/svg"
 width="279.000000pt" height="180.000000pt" viewBox="0 0 279.000000 180.000000"
 preserveAspectRatio="xMidYMid meet">

<g transform="translate(0.000000,180.000000) scale(0.100000,-0.100000)"
fill="#000000" stroke="none">
<path d="M1337 1339 c-122 -29 -253 -134 -311 -249 -50 -101 -74 -275 -37
-275 10 0 14 19 17 71 4 87 32 171 81 242 47 68 101 113 189 154 65 31 75 33
179 33 106 0 113 -1 188 -37 184 -88 290 -284 258 -475 -39 -233 -244 -397
-475 -381 -101 8 -131 19 -271 108 -13 8 -27 11 -31 7 -14 -14 42 -59 123 -99
72 -36 92 -41 170 -45 155 -9 261 28 369 129 202 189 202 507 0 696 -67 62
-142 104 -217 121 -53 13 -180 12 -232 0z"/>
<path d="M1357 1146 c-96 -36 -141 -130 -103 -220 27 -64 84 -100 220 -138 39
-11 86 -28 104 -40 49 -30 59 -93 20 -135 -43 -46 -106 -38 -209 29 -116 75
-183 101 -263 102 -55 0 -80 -4 -113 -22 -41 -21 -83 -68 -97 -106 -5 -15 -3
-17 16 -12 121 35 147 38 243 33 78 -4 123 -13 207 -41 125 -42 208 -47 274
-17 75 34 113 111 95 192 -20 87 -75 127 -229 166 -140 35 -182 64 -182 121 0
37 52 82 95 82 66 0 107 -26 152 -96 10 -16 12 -12 12 28 1 44 -2 49 -31 64
-44 23 -162 28 -211 10z"/>
</g>
</svg>
